Coordinates
nRows=8
nColumns=38

# SIMM Motion File Header:
name Coordinates
datacolumns 38
datarows 8
otherdata 1
range 1.16000000000000010000 1.16700000000000000000

Units are S.I. units (second, meters, Newtons, ...)
Angles are in degrees.

endheader
time	pelvis_tilt	pelvis_list	pelvis_rotation	pelvis_tx	pelvis_ty	pelvis_tz	hip_flexion_r	hip_adduction_r	hip_rotation_r	knee_angle_r	ankle_angle_r	subtalar_angle_r	mtp_angle_r	hip_flexion_l	hip_adduction_l	hip_rotation_l	knee_angle_l	ankle_angle_l	subtalar_angle_l	mtp_angle_l	lumbar_extension	lumbar_bending	lumbar_rotation	arm_flex_r	arm_add_r	arm_rot_r	elbow_flex_r	pro_sup_r	wrist_flex_r	wrist_dev_r	arm_flex_l	arm_add_l	arm_rot_l	elbow_flex_l	pro_sup_l	wrist_flex_l	wrist_dev_l
      1.16000000000000010000	     -4.80541981092464530000	      4.99736733093244910000	      2.05065946149934850000	      0.79722368576711822000	      1.03393505270904320000	     -0.46120302771902055000	     -5.80114338113706830000	     -4.49210805550648030000	     -9.92892900330869030000	    -34.69365724599365600000	    -22.93434492814548500000	      0.00000000000006099788	      0.00000000000016218256	     19.31923211525351600000	      5.42925326028360100000	      0.59436068363212702000	    -13.32798637923737700000	    -12.09669321158752800000	     -0.00000000000004983934	      0.00000000000006160368	     -1.26724664068621710000	     -1.66415266237050470000	      3.61995267392769330000	    -11.74216047044740700000	    -17.35511669351219800000	      4.92982871993700830000	    113.23029373573785000000	     82.74896729996488900000	      0.00000000000002276057	      0.00000000000000543855	    -43.65854136075805800000	    -39.59980215756857500000	     14.78585666145179500000	    116.96896267902233000000	     64.38459672438368400000	      0.00000000000001893108	      0.00000000000001520588
      1.16100000000000000000	     -4.79741341377406450000	      5.00119742494449950000	      2.07598166210613750000	      0.79730646688264362000	      1.03362343243091570000	     -0.46131228481156855000	     -5.72282601284416080000	     -4.50418698566634030000	     -9.84350420534801530000	    -35.01922892357925600000	    -22.87324417129061500000	      0.00000000000006106495	      0.00000000000016283668	     19.30274789483842900000	      5.44726427712854470000	      0.54342731870175132000	    -13.30108124588953600000	    -12.18673815354470100000	     -0.00000000000005003270	      0.00000000000006203464	     -1.26079498582655040000	     -1.68234287327667810000	      3.58569354980371770000	    -11.80689295866242200000	    -17.33580382140257800000	      4.91231169365357000000	    113.18343659160766000000	     82.73543098311181200000	      0.00000000000002287721	      0.00000000000000549723	    -43.58369941304820100000	    -39.57783733269541700000	     14.79154617626834800000	    116.99366213974156000000	     64.41042635073878800000	      0.00000000000001900239	      0.00000000000001533268
      1.16200000000000010000	     -4.78782936260791380000	      5.00464681026092870000	      2.10019044439423300000	      0.79738797494692470000	      1.03330460713638120000	     -0.46141827362174292000	     -5.64428837200062450000	     -4.51512633583137730000	     -9.75557566743255760000	    -35.34699573861312400000	    -22.80900849651532500000	      0.00000000000006113180	      0.00000000000016349031	     19.28624631145275000000	      5.46415101958656900000	      0.48832465505745176000	    -13.28209448542292600000	    -12.27590595440924700000	     -0.00000000000005022698	      0.00000000000006246673	     -1.25624984665144310000	     -1.70034138018220720000	      3.55168909070441210000	    -11.87152302269540400000	    -17.31630432043041900000	      4.89523081985698740000	    113.13484560756918000000	     82.72235279632150200000	      0.00000000000002299367	      0.00000000000000555881	    -43.50661833328236800000	    -39.55583632556038500000	     14.79794383242522000000	    117.01746641942235000000	     64.43618838767459100000	      0.00000000000001907395	      0.00000000000001545953
      1.16300000000000000000	     -4.77662811339668990000	      5.00768998456470180000	      2.12335149307539520000	      0.79746822085933255000	      1.03297866249008790000	     -0.46152113815316093000	     -5.56560294791829960000	     -4.52491722645241180000	     -9.66541189644312300000	    -35.67686284842587700000	    -22.74183363924071700000	      0.00000000000006120003	      0.00000000000016414444	     19.26966568570680100000	      5.47992318442589090000	      0.42935782604386485000	    -13.27105786063017400000	    -12.36392504068544600000	     -0.00000000000005042324	      0.00000000000006289961	     -1.25366227357426800000	     -1.71810902181915480000	      3.51786127232429810000	    -11.93603344932777500000	    -17.29664656638747300000	      4.87861775175031550000	    113.08455310981141000000	     82.70966475347081800000	      0.00000000000002310993	      0.00000000000000562270	    -43.42732375491585400000	    -39.53379145165377700000	     14.80502397938037400000	    117.04037980996340000000	     64.46198244629945900000	      0.00000000000001914554	      0.00000000000001558685
      1.16400000000000010000	     -4.76378243532389330000	      5.01028333256649190000	      2.14563540234576600000	      0.79754720307860449000	      1.03264566324964810000	     -0.46162117502829647000	     -5.48686183946639260000	     -4.53352421979860320000	     -9.57338445731014250000	    -36.00870090645698700000	    -22.67192595483428600000	      0.00000000000006126818	      0.00000000000016479952	     19.25298365942314800000	      5.49458832337818400000	      0.36666943918285855000	    -13.26806412505562500000	    -12.45033932169378400000	     -0.00000000000005061730	      0.00000000000006333003	     -1.25307235830271320000	     -1.73558984988389400000	      3.48403557937121500000	    -12.00039987944839700000	    -17.27685386508902700000	      4.86250531149711310000	    113.03259437440921000000	     82.69730023793914600000	      0.00000000000002322595	      0.00000000000000568608	    -43.34585942241011500000	    -39.51169280384771600000	     14.81275981656948000000	    117.06241360083609000000	     64.48790554057572400000	      0.00000000000001921739	      0.00000000000001571427
      1.16500000000000000000	     -4.74924607236944580000	      5.01241242280602690000	      2.16704135194930460000	      0.79762492488087433000	      1.03230570736752410000	     -0.46171843601923612000	     -5.40811655232279340000	     -4.54096309805404900000	     -9.47969804495822290000	    -36.34244563284809000000	    -22.59947159423166200000	      0.00000000000006133695	      0.00000000000016545404	     19.23611662352360700000	      5.50814737184512990000	      0.30051827667793890000	    -13.27312363934672500000	    -12.53481208899378700000	     -0.00000000000005081143	      0.00000000000006375940	     -1.25453953546858270000	     -1.75275404616084750000	      3.45019972376267110000	    -12.06460225315660600000	    -17.25695887354309500000	      4.84692335039205790000	    112.97900531835300000000	     82.68518838149265100000	      0.00000000000002334169	      0.00000000000000574972	    -43.26224618560919300000	    -39.48952919671514600000	     14.82113117445722800000	    117.08357417227296000000	     64.51405568318658400000	      0.00000000000001928942	      0.00000000000001584202
      1.16600000000000010000	     -4.73296804303412610000	      5.01407413121396050000	      2.18752380150552340000	      0.79770138782608835000	      1.03195890088647220000	     -0.46181290953556986000	     -5.32940648666719950000	     -4.54726811747921560000	     -9.38451540949230360000	    -36.67805231772558000000	    -22.52464850434855800000	      0.00000000000006140683	      0.00000000000016610710	     19.21896546277685000000	      5.52060033892659870000	      0.23113589956747616000	    -13.28622836061721400000	    -12.61698263856643400000	     -0.00000000000005100391	      0.00000000000006418780	     -1.25812854495649250000	     -1.76958259503088230000	      3.41638348260638700000	    -12.12862218093834500000	    -17.23699577997115300000	      4.83190003278794670000	    112.92382295641833000000	     82.67325721642943400000	      0.00000000000002345733	      0.00000000000000581289	    -43.17649904227803100000	    -39.46729107442437400000	     14.83011951158741200000	    117.10386952858421000000	     64.54052834674899900000	      0.00000000000001936178	      0.00000000000001597019
      1.16700000000000000000	     -4.71489984789174250000	      5.01526484879784460000	      2.20705003594833560000	      0.79777658741829838000	      1.03160534609866890000	     -0.46190460472139427000	     -5.25077077956345840000	     -4.55247364769477960000	     -9.28801253416509450000	    -37.01547476387492700000	    -22.44763266146040700000	      0.00000000000006147784	      0.00000000000016675915	     19.20143733258220600000	      5.53194721162940000000	      0.15869724399038876000	    -13.30738024744393000000	    -12.69641689811051500000	     -0.00000000000005119534	      0.00000000000006461459	     -1.26390225539112190000	     -1.78605593429471290000	      3.38260432635447430000	    -12.19244142194173500000	    -17.21699798209953900000	      4.81746245004096880000	    112.86708578151857000000	     82.66143462725742100000	      0.00000000000002357328	      0.00000000000000587428	    -43.08863458516540100000	    -39.44497011127042200000	     14.83970679468586300000	    117.12331140624462000000	     64.56741494613734700000	      0.00000000000001943376	      0.00000000000001609809
